<svg width="58" height="77" viewBox="0 0 58 77" fill="none" xmlns="http://www.w3.org/2000/svg">
<g id="Account">
<path id="Vector" d="M48.125 4.8125C50.7829 4.8125 52.9375 6.96715 52.9375 9.625V61.3849C52.9375 61.3849 48.125 52.9375 28.875 52.9375C9.625 52.9375 4.8125 61.3854 4.8125 61.3854V9.625C4.8125 6.96715 6.96715 4.8125 9.625 4.8125H48.125ZM9.625 0C4.30926 0 0 4.30926 0 9.625V67.375C0 72.6909 4.30926 77 9.625 77H48.125C53.4409 77 57.75 72.6909 57.75 67.375V9.625C57.75 4.30926 53.4409 0 48.125 0H9.625Z" fill="black"/>
<path id="Vector_2" d="M28.875 48.125C36.8486 48.125 43.3125 41.6611 43.3125 33.6875C43.3125 25.7139 36.8486 19.25 28.875 19.25C20.9014 19.25 14.4375 25.7139 14.4375 33.6875C14.4375 41.6611 20.9014 48.125 28.875 48.125Z" fill="black"/>
</g>
</svg>
