<svg width="80" height="71" viewBox="0 0 80 71" fill="none" xmlns="http://www.w3.org/2000/svg">
<g id="Frame" clip-path="url(#clip0_142_132)">
<path id="Vector" d="M70 4.4375C72.7615 4.4375 75 6.42426 75 8.875V62.125C75 64.5758 72.7615 66.5625 70 66.5625H10C7.2386 66.5625 5 64.5758 5 62.125V8.875C5 6.42426 7.2386 4.4375 10 4.4375H70ZM10 0C4.47716 0 0 3.97348 0 8.875V62.125C0 67.0267 4.47716 71 10 71H70C75.523 71 80 67.0267 80 62.125V8.875C80 3.97348 75.523 0 70 0H10Z" fill="black"/>
<path id="Vector_2" d="M40 17.75C41.3807 17.75 42.5 18.7434 42.5 19.9688V33.2812H57.5C58.8805 33.2812 60 34.2746 60 35.5C60 36.7254 58.8805 37.7188 57.5 37.7188H42.5V51.0312C42.5 52.2564 41.3807 53.25 40 53.25C38.6193 53.25 37.5 52.2564 37.5 51.0312V37.7188H22.5C21.1193 37.7188 20 36.7254 20 35.5C20 34.2746 21.1193 33.2812 22.5 33.2812H37.5V19.9688C37.5 18.7434 38.6193 17.75 40 17.75Z" fill="black"/>
</g>
<defs>
<clipPath id="clip0_142_132">
<rect width="80" height="71" fill="white"/>
</clipPath>
</defs>
</svg>
