
<svg width="75" height="75" viewBox="0 0 75 75" fill="none" xmlns="http://www.w3.org/2000/svg">
<g id="Frame" clip-path="url(#clip0_142_128)">
<path id="Vector" d="M65.625 4.6875C68.2139 4.6875 70.3125 6.78619 70.3125 9.375V65.625C70.3125 68.2139 68.2139 70.3125 65.625 70.3125H9.375C6.78619 70.3125 4.6875 68.2139 4.6875 65.625V9.375C4.6875 6.78619 6.78619 4.6875 9.375 4.6875H65.625ZM9.375 0C4.19733 0 0 4.19733 0 9.375V65.625C0 70.8028 4.19733 75 9.375 75H65.625C70.8028 75 75 70.8028 75 65.625V9.375C75 4.19733 70.8028 0 65.625 0H9.375Z" fill="black"/>
<path id="Vector_2" d="M21.7802 21.7802C22.6955 20.8649 24.1795 20.8649 25.0948 21.7802L37.5 34.1854L49.905 21.7802C50.8205 20.8649 52.3045 20.8649 53.22 21.7802C54.135 22.6955 54.135 24.1795 53.22 25.0948L40.8146 37.5L53.22 49.905C54.135 50.8205 54.135 52.3045 53.22 53.22C52.3045 54.135 50.8205 54.135 49.905 53.22L37.5 40.8146L25.0948 53.22C24.1795 54.135 22.6955 54.135 21.7802 53.22C20.8649 52.3045 20.8649 50.8205 21.7802 49.905L34.1854 37.5L21.7802 25.0948C20.8649 24.1795 20.8649 22.6955 21.7802 21.7802Z" fill="black"/>
</g>
<defs>
<clipPath id="clip0_142_128">
<rect width="75" height="75" fill="white"/>
</clipPath>
</defs>
</svg>
